<svg id="Capa_1" data-name="Capa 1" xmlns="http://www.w3.org/2000/svg" xmlns:xlink="http://www.w3.org/1999/xlink" viewBox="0 0 595.28 420.94"><defs><style>.cls-1{fill:none;}.cls-2{clip-path:url(#clip-path);}.cls-3{fill:#2e4798;}</style><clipPath id="clip-path"><rect class="cls-1" x="190.15" y="103.34" width="179.13" height="206.56"/></clipPath></defs><g class="cls-2"><path class="cls-3" d="M369,196.3a10.33,10.33,0,1,0-20.66,0v6.88h-6.89V158.43a10.32,10.32,0,0,0-10.32-10.33H324.2V110.23a6.89,6.89,0,0,0-6.89-6.89H282.89a6.9,6.9,0,0,0-6.89,6.89H245.44a6.63,6.63,0,0,0-1.66.21L204,120.38a6.88,6.88,0,0,0-3.7,2.38l-8.57,10.71a6.89,6.89,0,0,0,5.38,11.19H276v24.1H197.1a6.88,6.88,0,0,0-5.38,11.18l8.57,10.71A6.85,6.85,0,0,0,204,193L243.78,203a6.67,6.67,0,0,0,1.66.2h13.35v27.55a10.32,10.32,0,0,0,10.33,10.32H276v7.52a10.32,10.32,0,0,0-6.88,9.7V272a10.31,10.31,0,0,0,6.88,9.69V303a6.89,6.89,0,0,0,6.89,6.89h34.42A6.88,6.88,0,0,0,324.2,303V281.73a10.33,10.33,0,0,0,6.89-9.69V258.27a10.34,10.34,0,0,0-6.89-9.7v-7.52h6.89a10.32,10.32,0,0,0,10.32-10.32V210.07h6.89V217A10.33,10.33,0,1,0,369,217Zm-86.07-86.07h34.42V247.94H282.89v-6.89h6.88a3.44,3.44,0,1,0,0-6.88h-6.88v-6.89h13.77a3.44,3.44,0,0,0,0-6.88H282.89v-6.89h6.88a3.44,3.44,0,1,0,0-6.88h-6.88v-6.89h13.77a3.45,3.45,0,0,0,0-6.89H282.89V186h6.88a3.45,3.45,0,1,0,0-6.89h-6.88V172.2h13.77a3.45,3.45,0,0,0,0-6.89H282.89v-6.88h6.88a3.45,3.45,0,1,0,0-6.89h-6.88v-6.88h13.77a3.45,3.45,0,0,0,0-6.89H282.89Zm-77.23,16.83,39.78-9.94H276v20.65H197.1Zm39.78,69.24-39.77-10-8.57-10.71h61.69V196.3Zm20.23,34.43V175.64H276v58.53h-6.88a3.45,3.45,0,0,1-3.45-3.44ZM317.31,303H282.89V282.37h34.42Zm6.89-31a3.44,3.44,0,0,1-3.44,3.44H279.45A3.44,3.44,0,0,1,276,272V258.27a3.44,3.44,0,0,1,3.45-3.44h41.31a3.44,3.44,0,0,1,3.44,3.44Zm10.33-41.31a3.44,3.44,0,0,1-3.44,3.44H324.2V155h6.89a3.44,3.44,0,0,1,3.44,3.44ZM362.07,217a3.44,3.44,0,1,1-6.88,0V196.3a3.44,3.44,0,1,1,6.88,0Zm0,0"/></g></svg>