<svg id="Capa_1" data-name="Capa 1" xmlns="http://www.w3.org/2000/svg" viewBox="0 0 595.28 420.94"><defs><style>.cls-1{fill:#51b793;}</style></defs><path class="cls-1" d="M404.42,134.87H259.22a19.89,19.89,0,0,0-19.87,19.86V299.94a19.89,19.89,0,0,0,19.87,19.86h145.2a19.89,19.89,0,0,0,19.87-19.86V154.73a19.89,19.89,0,0,0-19.87-19.86Zm9,165.07a9,9,0,0,1-9,9H259.22a9,9,0,0,1-9-9V154.73a9,9,0,0,1,9-9h145.2a9,9,0,0,1,9,9Zm0,0"/><path class="cls-1" d="M396.84,156.9h-130a5.42,5.42,0,0,0-5.42,5.42V249a5.42,5.42,0,0,0,5.42,5.42h130a5.42,5.42,0,0,0,5.42-5.42V162.32a5.42,5.42,0,0,0-5.42-5.42ZM316.5,243.59a16.25,16.25,0,0,1,30.64,0Zm74.92,0H358.36a27.13,27.13,0,0,0-26.54-21.67,27.76,27.76,0,0,0-4,.29l-5.74-15.78a5.42,5.42,0,0,0-10.19,3.7l5.75,15.8a27.12,27.12,0,0,0-12.37,17.66H272.22V167.74h119.2Zm0,0"/><path class="cls-1" d="M386,265.26a16.26,16.26,0,1,0,16.26,16.26A16.27,16.27,0,0,0,386,265.26Zm0,21.67a5.42,5.42,0,1,1,5.42-5.41,5.42,5.42,0,0,1-5.42,5.41Zm0,0"/><path class="cls-1" d="M277.64,265.26a16.26,16.26,0,1,0,16.25,16.26,16.28,16.28,0,0,0-16.25-16.26Zm0,21.67a5.42,5.42,0,1,1,5.42-5.41,5.42,5.42,0,0,1-5.42,5.41Zm0,0"/><path class="cls-1" d="M284.44,204.26a5.41,5.41,0,0,0,7.65.42,59.32,59.32,0,0,1,79.46,0,5.42,5.42,0,0,0,7.23-8.07,70.14,70.14,0,0,0-93.92,0,5.41,5.41,0,0,0-.42,7.65Zm0,0"/><path class="cls-1" d="M353.49,265.26H310.15a5.42,5.42,0,0,0-5.42,5.42v21.67a5.41,5.41,0,0,0,5.42,5.42h43.34a5.41,5.41,0,0,0,5.42-5.42V270.68a5.42,5.42,0,0,0-5.42-5.42Zm-5.42,21.67h-32.5V276.1h32.5Zm0,0"/></svg>