<svg id="Capa_1" data-name="Capa 1" xmlns="http://www.w3.org/2000/svg" viewBox="0 0 595.28 420.94"><defs><style>.cls-1{fill:#51b793;}</style></defs><path class="cls-1" d="M352.71,227.84V149.48a20.89,20.89,0,0,0-41.77,0v78.36a35.64,35.64,0,0,0,20.79,64.51h.09a35.64,35.64,0,0,0,20.89-64.51Zm-2.07,47.74a26.54,26.54,0,0,1-18.82,7.78h-.07a26.65,26.65,0,0,1-13.95-49.31,4.5,4.5,0,0,0,2.13-3.82V149.48a11.9,11.9,0,0,1,23.79,0v80.75a4.49,4.49,0,0,0,2.12,3.82,26.65,26.65,0,0,1,4.8,41.53Zm0,0"/><path class="cls-1" d="M336.19,242.25V150.83a4.37,4.37,0,1,0-8.74,0v91.42a15.11,15.11,0,1,0,8.74,0Z"/></svg>