<svg id="Capa_1" data-name="Capa 1" xmlns="http://www.w3.org/2000/svg" viewBox="0 0 595.28 420.94"><defs><style>.cls-1{fill:#2e4798;}</style></defs><path class="cls-1" d="M343.35,205.4v-79a21.06,21.06,0,1,0-42.12,0v79a35.94,35.94,0,0,0,21,65.06h.1a35.94,35.94,0,0,0,21.06-65.06Zm-2.09,48.14a26.69,26.69,0,0,1-19,7.85h-.07a26.87,26.87,0,0,1-14.07-49.72,4.55,4.55,0,0,0,2.14-3.85V126.38a12,12,0,1,1,24,0v81.44a4.56,4.56,0,0,0,2.15,3.85,26.86,26.86,0,0,1,4.83,41.87Zm0,0"/><path class="cls-1" d="M326.7,219.93v-92.2a4.41,4.41,0,0,0-8.82,0v92.2a15.23,15.23,0,1,0,8.82,0Z"/></svg>