<svg id="Capa_1" data-name="Capa 1" xmlns="http://www.w3.org/2000/svg" viewBox="0 0 595.28 420.94"><defs><style>.cls-1{fill:#001689;}</style></defs><path class="cls-1" d="M397.73,108.46H251.29a20.06,20.06,0,0,0-20,20V274.94a20.05,20.05,0,0,0,20,20H397.73a20.05,20.05,0,0,0,20-20V128.5a20.06,20.06,0,0,0-20-20Zm9.11,166.48a9.12,9.12,0,0,1-9.11,9.11H251.29a9.12,9.12,0,0,1-9.11-9.11V128.5a9.12,9.12,0,0,1,9.11-9.11H397.73a9.12,9.12,0,0,1,9.11,9.11Zm0,0"/><path class="cls-1" d="M390.08,130.68H258.94a5.46,5.46,0,0,0-5.46,5.47v87.43a5.46,5.46,0,0,0,5.46,5.46H390.08a5.46,5.46,0,0,0,5.46-5.46V136.15a5.46,5.46,0,0,0-5.46-5.47Zm-81,87.43a16.38,16.38,0,0,1,30.9,0Zm75.56,0H351.28a27.38,27.38,0,0,0-26.77-21.86,28,28,0,0,0-4,.3l-5.8-15.92a5.46,5.46,0,1,0-10.27,3.74l5.8,15.93a27.42,27.42,0,0,0-12.48,17.81H264.4v-76.5H384.62Zm0,0"/><path class="cls-1" d="M379.15,240a16.39,16.39,0,1,0,16.39,16.39A16.41,16.41,0,0,0,379.15,240Zm0,21.86a5.47,5.47,0,1,1,5.47-5.47,5.48,5.48,0,0,1-5.47,5.47Zm0,0"/><path class="cls-1" d="M269.87,240a16.39,16.39,0,1,0,16.39,16.39A16.41,16.41,0,0,0,269.87,240Zm0,21.86a5.47,5.47,0,1,1,5.46-5.47,5.48,5.48,0,0,1-5.46,5.47Zm0,0"/><path class="cls-1" d="M276.73,178.45a5.46,5.46,0,0,0,7.71.42,59.82,59.82,0,0,1,80.13,0,5.47,5.47,0,1,0,7.3-8.14,70.75,70.75,0,0,0-94.72,0,5.46,5.46,0,0,0-.42,7.72Zm0,0"/><path class="cls-1" d="M346.37,240H302.65a5.45,5.45,0,0,0-5.46,5.46v21.86a5.45,5.45,0,0,0,5.46,5.46h43.72a5.45,5.45,0,0,0,5.46-5.46V245.43a5.45,5.45,0,0,0-5.46-5.46Zm-5.47,21.86H308.12V250.9H340.9Zm0,0"/></svg>