<svg id="Capa_1" data-name="Capa 1" xmlns="http://www.w3.org/2000/svg" xmlns:xlink="http://www.w3.org/1999/xlink" viewBox="0 0 595.28 420.94"><defs><style>.cls-1{fill:none;}.cls-2{clip-path:url(#clip-path);}.cls-3{fill:#51b793;}</style><clipPath id="clip-path"><rect class="cls-1" x="205.58" y="108.06" width="177.62" height="204.82"/></clipPath></defs><g class="cls-2"><path class="cls-3" d="M382.88,200.23a10.24,10.24,0,0,0-20.48,0v6.83h-6.83V162.68a10.24,10.24,0,0,0-10.24-10.24H338.5V114.89a6.82,6.82,0,0,0-6.82-6.83H297.54a6.83,6.83,0,0,0-6.83,6.83h-30.3a7,7,0,0,0-1.65.2L219.31,125a6.89,6.89,0,0,0-3.67,2.36l-8.5,10.63A6.83,6.83,0,0,0,212.47,149h78.24v23.89H212.47A6.83,6.83,0,0,0,207.14,184l8.5,10.63a6.93,6.93,0,0,0,3.67,2.36l39.46,9.86a7,7,0,0,0,1.64.2h13.24v27.31a10.24,10.24,0,0,0,10.24,10.24h6.82v7.45a10.25,10.25,0,0,0-6.82,9.62v13.65a10.21,10.21,0,0,0,6.82,9.61v21.12a6.82,6.82,0,0,0,6.83,6.82h34.14a6.82,6.82,0,0,0,6.82-6.82V284.94a10.22,10.22,0,0,0,6.83-9.61V261.68a10.25,10.25,0,0,0-6.83-9.62v-7.45h6.83a10.24,10.24,0,0,0,10.24-10.24V213.89h6.83v6.82a10.24,10.24,0,0,0,20.48,0Zm-85.34-85.34h34.14V251.44H297.54v-6.83h6.83a3.42,3.42,0,0,0,0-6.83h-6.83V231h13.65a3.41,3.41,0,1,0,0-6.82H297.54V217.3h6.83a3.42,3.42,0,0,0,0-6.83h-6.83v-6.83h13.65a3.41,3.41,0,1,0,0-6.82H297.54V190h6.83a3.42,3.42,0,0,0,0-6.83h-6.83v-6.82h13.65a3.42,3.42,0,1,0,0-6.83H297.54v-6.83h6.83a3.42,3.42,0,0,0,0-6.83h-6.83V149h13.65a3.42,3.42,0,1,0,0-6.83H297.54ZM221,131.57l39.44-9.85h30.3V142.2H212.47Zm39.44,68.66L221,190.37l-8.5-10.62h61.18v20.48Zm20.06,34.14V179.75h10.24v58h-6.82a3.42,3.42,0,0,1-3.42-3.41Zm51.21,71.69H297.54V285.57h34.14Zm6.82-30.73a3.41,3.41,0,0,1-3.41,3.42h-41a3.42,3.42,0,0,1-3.42-3.42V261.68a3.41,3.41,0,0,1,3.42-3.41h41a3.4,3.4,0,0,1,3.41,3.41Zm10.24-41a3.41,3.41,0,0,1-3.41,3.41H338.5V159.27h6.83a3.41,3.41,0,0,1,3.41,3.41Zm27.32-13.66a3.42,3.42,0,1,1-6.83,0V200.23a3.42,3.42,0,0,1,6.83,0Zm0,0"/></g></svg>