<svg id="Capa_1" data-name="Capa 1" xmlns="http://www.w3.org/2000/svg" viewBox="0 0 595.28 420.94"><defs><style>.cls-1{fill:#2e4798;}</style></defs><path class="cls-1" d="M366.88,138a102.51,102.51,0,1,0,30,72.49,101.83,101.83,0,0,0-30-72.49ZM294.39,306.44a96,96,0,1,1,96-96,96.08,96.08,0,0,1-96,96Zm0,0"/><path class="cls-1" d="M294.39,121.05a89.43,89.43,0,1,0,89.43,89.42,89.52,89.52,0,0,0-89.43-89.42Zm0,172.31a82.89,82.89,0,1,1,82.89-82.89,83,83,0,0,1-82.89,82.89Zm0,0"/><path class="cls-1" d="M353.27,176.81c0-.08-.08-.17-.13-.25s-.13-.2-.19-.3a68.42,68.42,0,0,0-24.35-24.34,2.9,2.9,0,0,0-.29-.19l-.26-.13a67.71,67.71,0,0,0-67.32,0l-.25.13-.3.19a68.4,68.4,0,0,0-24.34,24.34,3,3,0,0,0-.19.3c-.05.08-.09.17-.13.25a67.72,67.72,0,0,0,.15,67.59c.16.28,1.72,2.76,4.86.95l9-5.22a3.27,3.27,0,1,0-3.27-5.66l-6.53,3.77a61.12,61.12,0,0,1-6.56-24.5h7.54a3.27,3.27,0,0,0,0-6.54h-7.55a60.87,60.87,0,0,1,6.57-24.49l6.53,3.77a3.25,3.25,0,0,0,1.63.44,3.27,3.27,0,0,0,1.64-6.11L243,177.05A62,62,0,0,1,261,159.12l3.76,6.52a3.28,3.28,0,0,0,2.84,1.64,3.22,3.22,0,0,0,1.63-.44,3.28,3.28,0,0,0,1.2-4.47l-3.77-6.53a60.71,60.71,0,0,1,24.49-6.57v7.55a3.27,3.27,0,0,0,6.54,0v-7.55a60.71,60.71,0,0,1,24.49,6.57l-3.76,6.53a3.27,3.27,0,1,0,5.66,3.27l3.77-6.52a62,62,0,0,1,17.92,17.93l-6.52,3.76a3.27,3.27,0,0,0,1.64,6.11,3.2,3.2,0,0,0,1.63-.44l6.53-3.77a60.71,60.71,0,0,1,6.57,24.49h-7.54a3.27,3.27,0,0,0,0,6.54h7.54a61.29,61.29,0,0,1-6.56,24.5l-6.53-3.77a3.27,3.27,0,1,0-3.27,5.66l9.44,5.46a3.33,3.33,0,0,0,1.63.44,3.28,3.28,0,0,0,2.84-1.64,67.77,67.77,0,0,0,.13-67.58Zm0,0"/><path class="cls-1" d="M305.54,190.47a3.28,3.28,0,0,0-4.45,1.27l-5,9.06a9.93,9.93,0,0,0-1.65-.14,9.82,9.82,0,0,0-9.81,9.81,9.61,9.61,0,0,0,.17,1.79l-27.13,15.66a3.28,3.28,0,0,0,3.28,5.67L288,217.93a9.81,9.81,0,0,0,15.58-4.05L314,214h0a3.27,3.27,0,0,0,3.27-3.22,22.86,22.86,0,0,0-11.75-20.35Zm-11.15,23.27A3.27,3.27,0,1,1,296,207.6l0,0a3.26,3.26,0,0,1,1.69,2.85s0,0,0,0a3.28,3.28,0,0,1-3.27,3.23Zm9.3-6.4a9.68,9.68,0,0,0-1.94-3.35l3.31-5.92a16.35,16.35,0,0,1,5.41,9.37Zm0,0"/><path class="cls-1" d="M305.8,271.76H283a3.28,3.28,0,1,0,0,6.55H305.8a3.28,3.28,0,0,0,0-6.55Zm0,0"/><path class="cls-1" d="M301.44,265.22a3.27,3.27,0,0,0,0-6.54H287.35a3.27,3.27,0,1,0,0,6.54Zm0,0"/></svg>